<svg xmlns="http://www.w3.org/2000/svg" viewBox="0 0 211.5 84.17"><defs><style>.cls-1{fill:#00b8c7;}</style></defs><title>THNKS_PrimaryLogo_Teal</title><g id="Layer_2" data-name="Layer 2"><g id="Layer_1-2" data-name="Layer 1"><path class="cls-1" d="M65.71,13.23c10.23-1.9,20.81-3.85,36.47-5.73a3.34,3.34,0,0,0,3.21-3.33A4.45,4.45,0,0,0,101.2.06,40.26,40.26,0,0,0,93,.65c-.71.1-1.38.2-2,.27C81.35,2.1,72.74,3.55,63.62,5.09c-4.32.73-8.7,1.47-13.26,2.18S39.73,9.21,34.85,10.2c-3,.6-5.61,1.13-7,1.36C19.66,12.91,13.55,14.12,5.35,16c0,0-3.76.93-4.66,2.47A4.94,4.94,0,0,0,.3,22.71a4.64,4.64,0,0,0,2.78,2.83,3.22,3.22,0,0,0,1.73.2c3.16-.53,6.28-1.36,9.31-2.16,1.51-.4,3-.81,4.56-1.17,3.22-.78,6.45-1.51,10-2.3L32,19.35,30.64,31.2c-1.25,11.27-2.43,21.91-3.52,32.54a83.8,83.8,0,0,0-.46,12.8c.11,2,2.19,4.91,4.1,5.1l.34,0c2,0,4.26-2.07,5-3.57.93-1.89,1.46-9.51,1.42-11.15,0-1.84,2.07-28,4.21-41.49.47-3,1-6.4,1.18-8,1.66-.36,5.23-1.1,8.25-1.6C56.29,15,61.08,14.08,65.71,13.23ZM150.5,56.89c.37-3.18.68-6.37,1-9.56,8.54,7.1,17.78,11,29.78,9.65,6-.66,6-10.06,0-9.4-9.82,1.08-16.83-1.71-23.68-7.39,7.85-7.89,14.37-17.33,21.78-25.56,4-4.49-2.59-11.16-6.65-6.65C166,15.48,159.93,24,153,31.4c.58-5.92,1.26-11.82,2.21-17.69s-8.1-8.47-9.06-2.5c-2.45,15.14-3.29,30.46-5,45.68C140.42,62.89,149.82,62.84,150.5,56.89ZM136.36,18.28a5.22,5.22,0,0,0-1.12-4,4.74,4.74,0,0,0-3.44-1.39c-2.61-.11-3.49,3.3-3.61,4.63L128,20.31c-1,11-1.52,17.63-3.26,27.87-1.53-2.35-2.84-4.51-4.1-6.61-1.62-2.7-3.29-5.49-5.45-8.66-1.92-2.82-3.52-5-5-6.88l-.12-.15c-1.35-1.67-3.22-4-7.08-3.47-3,.37-3.8,3.55-4.28,5.44l-.07.3a113.34,113.34,0,0,0-2.43,13.28c-.79,6-1.49,12-2.16,17.84l-.56,4.86a4.21,4.21,0,0,0,1,3.25,3.9,3.9,0,0,0,2.85,1.38,5.71,5.71,0,0,0,.59,0c3.37-.17,3.92-3,4.23-4.52s.55-3.51.77-5.28c.09-.72.18-1.43.27-2.11.38-2.78.8-6,1.23-9.3.57-4.33,1.17-8.84,1.72-12.83,1.43,2.18,3.44,5.37,5.18,8.14,2.24,3.55,4.55,7.22,6.12,9.57.38.57.73,1.19,1.09,1.83,1.58,2.76,3.52,6.18,8,5.63a4.38,4.38,0,0,0,2.14-1h0c4-2.2,4.48-7.51,4.8-9.75C134.09,44.12,135.81,28.66,136.36,18.28ZM210.18,6.92C203.29.4,191.4,2.41,186.5,10.36c-8.4,13.62,6.67,23.43,10.37,35.16C207,77.71,153.32,83,137.86,64c-3.51-4.3-9.57,1.83-6.09,6.09,14.59,17.89,45.36,17.85,63,4.86,10.07-7.43,14-18.68,10.7-30.72-1.81-6.55-5.27-11.35-9.19-16.73-2.92-4-5.72-9.84-1.08-14,2.23-2,6.29-3,8.89-.51C208.11,16.83,214.21,10.74,210.18,6.92ZM88.62,32.76c.08-.85.2-2,.33-3.13a77.68,77.68,0,0,0,.66-8,3.74,3.74,0,0,0-3.52-3.54c-1.79-.19-4,.65-4.51,2.57h0c-1.13,4-2.33,10.39-2.76,12.85-2.81.44-11,1.72-16.21,2.58l.82-8.9a3.64,3.64,0,0,0-5.34-3.55c-2.28,1.2-3.56,3.33-3.9,6.5-.11,1-.53,3.9-1.07,7.6-1.41,9.69-3.53,24.32-3.66,29.08l0,.52a7.55,7.55,0,0,0,.6,4.08,5.74,5.74,0,0,0,1,1.27A4.5,4.5,0,0,0,54.89,74,4.21,4.21,0,0,0,58,71.8a3.32,3.32,0,0,0,.4-1.17c.37-2.52,2.56-21.13,3.11-25.77,2.73-.52,10.46-2,15.69-2.85-.46,4.07-1,8.43-1.54,12.67-.6,4.86-1.23,9.88-1.73,14.44a4.28,4.28,0,0,0,4.3,4.68A4,4,0,0,0,81.51,72,10.38,10.38,0,0,0,83,67.46L83.83,61c.68-5.14,1.35-10.27,2.1-15.44.44-3.9.44-3.9,2.53-4.54l.67-.21a4.31,4.31,0,0,0,2.62-4.88A4,4,0,0,0,88.62,32.76Z"/></g></g></svg>